<?xml version="1.0" encoding="utf-8"?>
<!-- Generator: Adobe Illustrator 25.2.0, SVG Export Plug-In . SVG Version: 6.00 Build 0)  -->
<svg version="1.1" id="圖層_1" xmlns="http://www.w3.org/2000/svg" xmlns:xlink="http://www.w3.org/1999/xlink" x="0px" y="0px"
	 viewBox="0 0 42.2 41.8" style="enable-background:new 0 0 42.2 41.8;" xml:space="preserve">
<style type="text/css">
	.st0{fill:#653E5F;}
	.st1{fill:#5C2557;}
	.st2{fill:#5C2657;}
</style>
<g>
	<g>
		<polygon class="st0" points="28,2.8 28.7,3 15.2,39.2 14.5,39 		"/>
	</g>
	<g>
		<path class="st0" d="M23.2,37.4l-3.9-36l-0.8,0.1l3.9,36.3C22.7,37.6,23,37.5,23.2,37.4z"/>
	</g>
	<g>
		<path class="st1" d="M21.1,40.8c-1.4,0-2.9-0.2-4.3-0.5l0,0c-3.9-0.9-7.5-2.9-10.2-5.9c-3.4-3.7-5.3-8.5-5.3-13.5
			c0-2.9,0.6-5.7,1.8-8.4c0.8-1.6,1.8-3.1,3-4.5C8.2,5.5,11,3.6,14,2.4c1.5-0.6,3-1,4.6-1.2C19.4,1.1,20.3,1,21.1,1
			C32,1.1,40.9,10,40.9,20.9c0,6.5-3.2,12.6-8.6,16.3c-0.5,0.4-1.1,0.7-1.7,1.1C27.8,39.9,24.4,40.8,21.1,40.8z M16.9,39.5
			L16.9,39.5c1.4,0.3,2.8,0.5,4.2,0.5c3.2,0,6.4-0.8,9.2-2.4c0.6-0.3,1.1-0.7,1.6-1c5.1-3.6,8.2-9.4,8.2-15.7c0-10.5-8.5-19-19-19
			c-0.8,0-1.6,0.1-2.4,0.2c-1.5,0.2-3,0.6-4.4,1.1c-2.9,1.1-5.5,3-7.6,5.4C5.6,9.9,4.6,11.4,3.9,13c-1.2,2.5-1.8,5.2-1.8,8
			c0,4.8,1.8,9.4,5.1,13C9.8,36.7,13.2,38.6,16.9,39.5z"/>
	</g>
	<g>
		<path class="st2" d="M33.8,19.7l-3.3-7.3c-0.9-1.8-1.7-3.5-2.6-5.3c-0.7-1-2.3-3-5.1-4.4c-1.5-0.7-2.9-1.1-4.1-1.2
			c-1.6,0.2-3.1,0.6-4.5,1.1c0.2,0,0.4,0,0.7,0c4.9,0,8.6,2.2,11.5,5.4l-4.6,10.9c-0.1,0.3-0.2,0.5-0.3,0.7c-1.2-0.4-2.6-0.8-4-1.1
			C11.7,17,6.3,15,6.3,9.6C6.3,9,6.4,8.5,6.4,8c-1.2,1.3-2.1,2.8-2.9,4.5c1.2,5.1,7,7.3,12.4,8.8c8.5,2.3,11.8,3.9,11.8,8.9
			c0,5.9-4.2,8-9.8,8c-4.8,0-8.4-1.8-11.1-4.2c2.6,2.8,6.1,4.9,10,5.7l0,0c0.4-0.1,0.8-0.2,1.2-0.3c6.9-1.7,10.9-5.7,12.3-7.3v5.6
			c0.6-0.3,1.1-0.7,1.7-1c0.7-5.5,1.4-10.9,2.1-16.4C34,20.3,33.9,20.1,33.8,19.7z M30.5,26.9c-0.1-0.9-0.5-3.1-2.4-5.2
			s-4.3-2.9-5.2-3.1c0.2-0.7,0.5-1.4,0.7-2.1c0.7,0,3.6,0.3,6,2.8c1.9,2,2.2,4.3,2.3,5.1c-0.2,0.4-0.4,0.8-0.6,1.2
			C31,26,30.7,26.5,30.5,26.9z M23.8,15.9c1-2.4,2.1-4.8,3.1-7.2c1.2,2.4,2.3,4.8,3.5,7.2H23.8z"/>
	</g>
	<g>
		<path class="st1" d="M21.1,41c-1.5,0-2.9-0.2-4.4-0.5c-4-0.9-7.6-2.9-10.4-6C2.9,30.9,1,26,1,20.9c0-3,0.6-5.8,1.9-8.5
			c0.8-1.7,1.8-3.2,3-4.6c2.2-2.5,4.9-4.5,8-5.7c1.5-0.6,3.1-1,4.7-1.2c0.8-0.1,1.7-0.2,2.6-0.2c11.1,0,20.1,9,20.1,20.1
			c0,6.6-3.3,12.8-8.7,16.6c-0.5,0.4-1.1,0.7-1.7,1.1C27.8,40.2,24.5,41,21.1,41z M21.1,0.9c-0.9,0-1.7,0.1-2.6,0.2
			c-1.6,0.2-3.2,0.6-4.6,1.2c-3.1,1.2-5.8,3.1-8,5.6c-1.2,1.4-2.2,3-3,4.6C1.7,15.2,1,18,1,21c0,5.1,1.9,9.9,5.4,13.6
			c2.8,3,6.4,5,10.3,5.9c1.4,0.3,2.9,0.5,4.3,0.5c3.4,0,6.7-0.9,9.7-2.5c0.6-0.3,1.2-0.7,1.7-1.1c5.4-3.7,8.7-9.9,8.7-16.5
			C41.1,9.9,32.1,0.9,21.1,0.9z"/>
	</g>
	<g>
		<path class="st2" d="M40.5,34c-0.4,0.6-1,1.3-1.7,1.8c-3.3,2.4-7.7,0.7-8.3,0.5c0,0.5,0,1,0,1.5h9.8C40.3,36.5,40.4,35.3,40.5,34z
			"/>
	</g>
</g>
</svg>
