<?xml version="1.0" encoding="utf-8"?>
<!-- Generator: Adobe Illustrator 25.2.0, SVG Export Plug-In . SVG Version: 6.00 Build 0)  -->
<svg version="1.1" id="圖層_1" xmlns="http://www.w3.org/2000/svg" xmlns:xlink="http://www.w3.org/1999/xlink" x="0px" y="0px"
	 viewBox="0 0 40 40" style="enable-background:new 0 0 40 40;" xml:space="preserve">
<style type="text/css">
	.st0{fill:#4297B2;}
	.st1{fill:#023047;}
</style>
<path class="st0" d="M33.3,28.8H6.7c-1.2,0-2.2-1-2.2-2.2s1-2.2,2.2-2.2h26.7c1.2,0,2.2,1,2.2,2.2S34.5,28.8,33.3,28.8z"/>
<path class="st0" d="M33.3,15.5H6.7c-1.2,0-2.2-1-2.2-2.2s1-2.2,2.2-2.2h26.7c1.2,0,2.2,1,2.2,2.2S34.5,15.5,33.3,15.5z"/>
<path class="st1" d="M26.8,15.5H6.2c-0.9,0-1.7-1-1.7-2.2s0.8-2.2,1.7-2.2h20.6c0.9,0,1.7,1,1.7,2.2S27.7,15.5,26.8,15.5z"/>
<path class="st1" d="M33.8,28.8H13.3c-0.9,0-1.7-1-1.7-2.2s0.7-2.2,1.7-2.2h20.5c0.9,0,1.7,1,1.7,2.2S34.8,28.8,33.8,28.8z"/>
</svg>
